<svg xmlns="http://www.w3.org/2000/svg" viewBox="0 0 180.68 125.88"><defs><style>.cls-1{fill:#34439b;}.cls-13,.cls-14,.cls-15,.cls-2{fill:#ed2224;}.cls-2{fill-opacity:0.45;}.cls-3{fill:#f15858;fill-opacity:0.74;}.cls-4{fill:#5a6bb2;}.cls-10,.cls-5,.cls-6{fill:#fff;}.cls-12,.cls-5,.cls-8{fill-opacity:0.2;}.cls-6{fill-opacity:0;}.cls-7,.cls-8{fill:#f6eb16;}.cls-7{fill-opacity:0.59;}.cls-9{fill:#282a74;fill-opacity:0.5;}.cls-10,.cls-11{fill-opacity:0.1;}.cls-11,.cls-12,.cls-17{fill:#010101;}.cls-13{fill-opacity:0.71;}.cls-14{fill-opacity:0.61;}.cls-15{fill-opacity:0.94;}.cls-16{fill:#ed1d60;fill-opacity:0.61;}</style></defs><title>appops-ph-logo-2015__vector</title><g id="Layer_2" data-name="Layer 2"><g id="Layer_1-2" data-name="Layer 1"><g id="layer1"><g id="g4682"><path id="polygon4684" class="cls-1" d="M36.14,62.59,17.87,93.77l17.86,31.41L54,94Z"/><path id="polygon4686" class="cls-2" d="M145,.7,126.68,31.88l17.87,31.41,18.27-31.18Z"/><path id="polygon4688" class="cls-3" d="M162.82,32.12,108,125.65l36.14.23,36.54-62.36Z"/><path id="polygon4690" class="cls-4" d="M36.54,0,0,62.36,17.87,93.77,72.68.23Z"/><path id="polygon4692" class="cls-5" d="M108.81.47l17.87,31.41L145,.7Z"/><path id="polygon4694" class="cls-6" d="M90.54,31.65l17.86,31.41,18.27-31.18Z"/><path id="polygon4696" class="cls-7" d="M72.27,62.82,90.54,31.65l17.86,31.41Z"/><path id="polygon4698" class="cls-8" d="M72.27,62.82,90.14,94.24l18.27-31.18Z"/><path id="polygon4700" class="cls-9" d="M35.73,125.18,54,94l17.87,31.41Z"/><path id="polygon4702" class="cls-5" d="M36.54,0,54.41,31.41,72.68.23Z"/><path id="polygon4704" class="cls-10" d="M18.27,31.18,36.54,0,54.41,31.41Z"/><path id="polygon4706" class="cls-6" d="M18.27,31.18,36.14,62.59,54.41,31.41Z"/><path id="polygon4708" class="cls-11" d="M0,62.36,18.27,31.18,36.14,62.59Z"/><path id="polygon4710" class="cls-12" d="M0,62.36,17.87,93.77,36.14,62.59Z"/><path id="polygon4712" class="cls-6" d="M54,94,36.14,62.59,17.87,93.77Z"/><path id="polygon4714" class="cls-12" d="M54,94,35.73,125.18,17.87,93.77Z"/><path id="polygon4716" class="cls-13" d="M162.82,32.12,145,.7,126.68,31.88Z"/><path id="polygon4718" class="cls-6" d="M162.82,32.12,144.55,63.29,126.68,31.88Z"/><g id="g4720"><path id="polygon4722" class="cls-14" d="M144.55,63.29l18.27-31.18,17.86,31.41Z"/><path id="polygon4724" class="cls-15" d="M144.55,63.29l17.86,31.41,18.27-31.18Z"/><path id="polygon4726" class="cls-6" d="M126.27,94.47l18.27-31.18,17.86,31.41Z"/><path id="polygon4728" class="cls-11" d="M126.27,94.47l17.87,31.41,18.27-31.18Z"/><path id="polygon4730" class="cls-12" d="M108,125.65l18.27-31.18,17.87,31.41Z"/></g><path id="polygon4732" class="cls-16" d="M127.06,31.88,145.34.71,109.2.47Z"/><g id="text4734"><path id="path3706" class="cls-17" d="M27.54,41.31l-3.64,0L21.27,57.11h2.28L24,54.25l3.05,0,.41,2.88,2.51,0L27.54,41.31m-2,2.79,1.15,8-2.4,0,1.25-8"/><path id="path3708" class="cls-17" d="M34.88,41.36l-3.66,0-.1,15.83,2.49,0,0-5.95h1.18c2.49,0,3.72-1.36,3.73-3.89V45.3c0-2.53-1.2-3.92-3.68-3.94m0,2.26c.79,0,1.22.37,1.21,1.5l0,2.37c0,1.13-.44,1.49-1.23,1.48H33.65l0-5.36h1.18"/><path id="path3710" class="cls-17" d="M43.54,41.42l-3.66,0-.1,15.83,2.49,0,0-5.95h1.18c2.49,0,3.72-1.36,3.73-3.89V45.36c0-2.53-1.2-3.92-3.68-3.94m0,2.26c.79,0,1.22.37,1.21,1.5l0,2.37c0,1.13-.44,1.49-1.23,1.48H42.31l0-5.36h1.18"/><path id="path3712" class="cls-17" d="M24.17,63c0-1.13.51-1.56,1.3-1.55s1.29.44,1.28,1.57l-.06,8.55c0,1.13-.51,1.56-1.3,1.55s-1.29-.44-1.28-1.57L24.17,63m-2.54,8.38c0,2.53,1.31,4,3.75,4s3.79-1.42,3.8-4l.05-8.23c0-2.53-1.31-4-3.75-4s-3.79,1.42-3.8,4l-.05,8.23"/><path id="path3714" class="cls-17" d="M34.54,59.46l-3.66,0-.1,15.83,2.49,0,0-5.95h1.18c2.49,0,3.72-1.36,3.73-3.89V63.39c0-2.53-1.2-3.92-3.68-3.94m0,2.26c.79,0,1.22.37,1.21,1.5l0,2.37c0,1.13-.44,1.49-1.23,1.48H33.31l0-5.36h1.18"/><path id="path3716" class="cls-17" d="M39.19,63.29c0,4.52,4.83,5.17,4.81,8.42,0,1.13-.51,1.53-1.3,1.53s-1.29-.42-1.28-1.55V70.56l-2.35,0v1c0,2.53,1.24,4,3.68,4s3.72-1.42,3.74-4c0-4.52-4.83-5.17-4.81-8.42,0-1.13.46-1.56,1.25-1.55s1.24.44,1.23,1.57v.66l2.35,0v-.5c0-2.53-1.22-4-3.64-4s-3.67,1.42-3.69,4"/></g><g id="text4740"><path id="path3720" class="cls-17" d="M55.13,46.6,55,70.35h1.56l.06-9.77,3,0c3.77,0,5.51-1.83,5.53-5.6l0-2.58c0-3.46-1.39-5.78-5.05-5.8l-4.92,0m1.48,12.56L56.68,48l3.36,0c2.65,0,3.52,1.69,3.5,4.26l0,2.78c0,2.88-1.21,4.1-4,4.08l-3,0"/><path id="path3722" class="cls-17" d="M76.4,59.33l-.07,11.16h1.59l.15-23.75H76.48l-.07,11.16-7.4,0,.07-11.16H67.52l-.15,23.75h1.56L69,59.28l7.4,0"/><path id="path3724" class="cls-17" d="M80.78,46.77l-.15,23.75h1.56l.15-23.75H80.78"/><path id="path3726" class="cls-17" d="M94,70.61V69.18l-7.46,0,.14-22.32H85.08l-.15,23.75,9,.06"/><path id="path3728" class="cls-17" d="M96.48,46.87l-.15,23.75h1.56L98,46.88H96.48"/><path id="path3730" class="cls-17" d="M100.79,46.9l-.15,23.75h1.56l.06-9.77,3,0c3.77,0,5.51-1.83,5.53-5.6l0-2.58c0-3.46-1.39-5.78-5.05-5.8l-4.92,0m1.48,12.56.07-11.13,3.36,0c2.65,0,3.52,1.69,3.5,4.26l0,2.78c0,2.88-1.21,4.1-4,4.08l-3,0"/><path id="path3732" class="cls-17" d="M113.18,47,113,70.73h1.56l.06-9.77,3,0c3.77,0,5.51-1.83,5.53-5.6l0-2.58c0-3.46-1.39-5.78-5.05-5.8l-4.92,0m1.48,12.56.07-11.13,3.36,0c2.65,0,3.52,1.69,3.5,4.26l0,2.78c0,2.88-1.21,4.1-4,4.08l-3,0"/><path id="path3734" class="cls-17" d="M125.57,47.06l-.15,23.75H127l.15-23.75h-1.56"/><path id="path3736" class="cls-17" d="M131.29,49.68l7.29,21.22h1.73l.15-23.75H139l-.13,20.05-7-20.1h-2l-.15,23.75h1.42l.14-21.17"/><path id="path3738" class="cls-17" d="M144.62,58.18l.06-9.57,7.8.05V47.24l-9.36-.06L143,70.93l9.36.06V69.56l-7.8-.05.06-9.91,6.48,0V58.22l-6.48,0"/><path id="path3740" class="cls-17" d="M160,47.08c-3.49,0-5.07,2.31-5.09,5.87,0,6.62,8.54,6.77,8.5,12.47,0,2.54-1,4.37-3.62,4.35s-3.58-1.86-3.57-4.4V64.06h-1.49v1.22c0,3.43,1.45,5.95,5.08,6s5.14-2.48,5.16-5.9c0-6.55-8.54-6.71-8.5-12.47,0-2.51,1-4.37,3.56-4.35s3.52,1.92,3.5,4.43v.61H165v-.51c0-3.43-1.42-5.95-5-6"/></g></g></g></g></g></svg>