<svg xmlns="http://www.w3.org/2000/svg" viewBox="0 0 162.67 162.67"><defs><style>.cls-1{fill:#231f20;}.cls-2{fill:#fff;}</style></defs><title>budotsmedia-logo-201706__vector</title><g id="Layer_2" data-name="Layer 2"><g id="Layer_1-2" data-name="Layer 1"><circle class="cls-1" cx="81.33" cy="81.33" r="81.33"/><path class="cls-2" d="M43.61,44.16v1.1c0,3.17-1,5.2-3.13,6.22,2.6,1,3.61,3.35,3.61,6.61V60.6c0,4.76-2.51,7.32-7.36,7.32H29.1V37.06h7.32C41.45,37.06,43.61,39.39,43.61,44.16ZM34,41.47v8.16h1.9c1.81,0,2.91-.79,2.91-3.26V44.64c0-2.2-.75-3.17-2.47-3.17ZM34,54v9.48h2.78c1.63,0,2.51-.75,2.51-3V57.78c0-2.87-.93-3.75-3.13-3.75Z"/><path class="cls-2" d="M51.63,37.06V60.86c0,2.2,1,3,2.51,3s2.51-.79,2.51-3V37.06h4.58v23.5c0,4.94-2.47,7.76-7.23,7.76s-7.23-2.82-7.23-7.76V37.06Z"/><path class="cls-2" d="M64.55,37.06h7.67c4.85,0,7.23,2.69,7.23,7.63V60.29c0,4.94-2.38,7.63-7.23,7.63H64.55Zm4.85,4.41v22h2.73c1.54,0,2.47-.79,2.47-3v-16c0-2.2-.93-3-2.47-3Z"/><path class="cls-2" d="M82.15,44.46c0-4.94,2.6-7.76,7.36-7.76s7.36,2.82,7.36,7.76v16c0,4.94-2.6,7.76-7.36,7.76s-7.36-2.82-7.36-7.76ZM87,60.82c0,2.2,1,3,2.51,3S92,63,92,60.82V44.16c0-2.2-1-3-2.51-3S87,42,87,44.16Z"/><path class="cls-2" d="M98.59,37.06h15v4.41h-5.07V67.92h-4.85V41.47H98.59Z"/><path class="cls-2" d="M122.23,36.7c4.72,0,7.14,2.82,7.14,7.76v1h-4.58V44.16c0-2.2-.88-3-2.42-3s-2.43.84-2.43,3c0,6.35,9.48,7.54,9.48,16.36,0,4.94-2.47,7.76-7.23,7.76S115,65.45,115,60.51v-1.9h4.59v2.2c0,2.2,1,3,2.51,3s2.51-.79,2.51-3c0-6.35-9.48-7.54-9.48-16.36C115.08,39.53,117.51,36.7,122.23,36.7Z"/><path class="cls-2" d="M48.72,111.88,52,90h6.74v30.86H54.19V98.7l-3.35,22.13H46.25L42.64,99v21.82H38.41V90h6.75Z"/><path class="cls-2" d="M67.15,103h6.66v4.41H67.15v9h8.38v4.41H62.3V90H75.53v4.41H67.15Z"/><path class="cls-2" d="M78.53,90H86.2c4.85,0,7.23,2.69,7.23,7.63V113.2c0,4.94-2.38,7.63-7.23,7.63H78.53Zm4.85,4.41v22h2.73c1.54,0,2.47-.79,2.47-3v-16c0-2.2-.93-3-2.47-3Z"/><path class="cls-2" d="M96.52,90h4.85v30.86H96.52Z"/><path class="cls-2" d="M120.59,120.83H115.7l-.84-5.6h-6l-.84,5.6h-4.45L108.56,90h7.1ZM109.53,111h4.67l-2.34-15.61Z"/></g></g></svg>