<svg xmlns="http://www.w3.org/2000/svg" viewBox="0 0 88.52 44.5"><defs><style>.cls-1{fill:#006838;}</style></defs><title>whale-shark-id-programme</title><g id="Layer_2" data-name="Layer 2"><g id="Layer_1-2" data-name="Layer 1"><path class="cls-1" d="M5.81,6.93,5,14.64H1.86L.24.17H2.45L3.68,11.58,4.77.17H7L8.1,11.66,9.28.17h2L9.65,14.64h-3Z"/><path class="cls-1" d="M14.68,14.64H12.4V.17h2.28v6.2h2.58V.17h2.32V14.64H17.26V8.44H14.68Z"/><path class="cls-1" d="M28.6,14.64H26.3L25.91,12H23.12l-.39,2.63H20.64L23,.17h3.33Zm-5.19-4.59H25.6L24.5,2.73Z"/><path class="cls-1" d="M29.65.17h2.28V12.57h3.74v2.07h-6Z"/><path class="cls-1" d="M38.94,6.27h3.12V8.33H38.94v4.24h3.93v2.07h-6.2V.17h6.2V2.23H38.94Z"/><path class="cls-1" d="M47.34,0c2.21,0,3.35,1.32,3.35,3.64V4.1H48.54v-.6c0-1-.41-1.43-1.14-1.43s-1.14.39-1.14,1.43c0,3,4.45,3.54,4.45,7.67,0,2.32-1.16,3.64-3.39,3.64s-3.39-1.32-3.39-3.64v-.89h2.15v1c0,1,.46,1.41,1.18,1.41s1.18-.37,1.18-1.41c0-3-4.45-3.54-4.45-7.67C44,1.32,45.12,0,47.34,0Z"/><path class="cls-1" d="M54.29,14.64H52V.17h2.28v6.2h2.58V.17h2.32V14.64H56.87V8.44H54.29Z"/><path class="cls-1" d="M68.21,14.64h-2.3L65.52,12H62.73l-.39,2.63H60.24L62.56.17h3.33ZM63,10.05h2.19l-1.1-7.32Z"/><path class="cls-1" d="M74,14.64a4.45,4.45,0,0,1-.21-1.78V10.59c0-1.34-.46-1.84-1.49-1.84h-.79v5.89H69.26V.17h3.43c2.36,0,3.37,1.1,3.37,3.33V4.63c0,1.49-.48,2.46-1.49,2.94,1.14.48,1.51,1.57,1.51,3.08v2.23a4.26,4.26,0,0,0,.25,1.76ZM71.54,2.23V6.68h.89c.85,0,1.37-.37,1.37-1.53V3.72c0-1-.35-1.49-1.16-1.49Z"/><path class="cls-1" d="M80.55,8.87l-.7,1.32v4.45H77.58V.17h2.28V6.47l3-6.31H85.1L81.94,6.62l3.16,8H82.77Z"/><path class="cls-1" d="M5,39v1.42c0,1.71-.85,2.68-2.5,2.68S0,42.13,0,40.42V34.87c0-1.71.85-2.68,2.5-2.68s2.5,1,2.5,2.68v1H3.41V34.77c0-.76-.34-1.05-.87-1.05s-.87.29-.87,1.05v5.76c0,.76.34,1,.87,1s.87-.27.87-1V39Z"/><path class="cls-1" d="M7.7,36.81H10v1.52H7.7v3.12h2.9V43H6V32.31h4.57v1.52H7.7Z"/><path class="cls-1" d="M16.64,34.77v.38a2.1,2.1,0,0,1-1.08,2.15,2.16,2.16,0,0,1,1.25,2.29v.87A2.27,2.27,0,0,1,14.26,43H11.63V32.31h2.53C15.9,32.31,16.64,33.12,16.64,34.77Zm-3.34-.93v2.82H14c.62,0,1-.27,1-1.13v-.59c0-.76-.26-1.1-.85-1.1Zm0,4.34v3.28h1c.56,0,.87-.26.87-1.05v-.93c0-1-.32-1.3-1.08-1.3Z"/><path class="cls-1" d="M19.42,32.31v8.23c0,.76.34,1,.87,1s.87-.27.87-1V32.31h1.59v8.12c0,1.71-.85,2.68-2.5,2.68s-2.5-1-2.5-2.68V32.31Z"/><path class="cls-1" d="M23.79,43V41.37h1.62v1.45l-.73,1.69H24L24.43,43Z"/><path class="cls-1" d="M34,34.95v1.39C34,38,33.13,39,31.46,39h-.79v4H29V32.31h2.47C33.13,32.31,34,33.24,34,34.95Zm-3.29-1.11v3.61h.79c.53,0,.82-.24.82-1v-1.6c0-.76-.29-1-.82-1Z"/><path class="cls-1" d="M36.48,43H34.81V32.31h1.68v4.57h1.91V32.31H40.1V43H38.39V38.41H36.48Z"/><path class="cls-1" d="M41.32,32.31H43V43H41.32Z"/><path class="cls-1" d="M44.21,32.31h1.68v9.14h2.76V43H44.21Z"/><path class="cls-1" d="M49.38,32.31h1.68V43H49.38Z"/><path class="cls-1" d="M57.24,34.95v1.39c0,1.71-.82,2.64-2.5,2.64h-.79v4H52.27V32.31h2.47C56.42,32.31,57.24,33.24,57.24,34.95Zm-3.29-1.11v3.61h.79c.53,0,.82-.24.82-1v-1.6c0-.76-.29-1-.82-1Z"/><path class="cls-1" d="M63.06,34.95v1.39c0,1.71-.82,2.64-2.5,2.64h-.79v4H58.09V32.31h2.47C62.24,32.31,63.06,33.24,63.06,34.95Zm-3.29-1.11v3.61h.79c.53,0,.82-.24.82-1v-1.6c0-.76-.29-1-.82-1Z"/><path class="cls-1" d="M63.92,32.31h1.68V43H63.92Z"/><path class="cls-1" d="M68.31,35.25V43H66.8V32.31h2.1l1.72,6.39V32.31h1.49V43H70.39Z"/><path class="cls-1" d="M75,36.81h2.3v1.52H75v3.12h2.9V43H73.32V32.31h4.57v1.52H75Z"/><path class="cls-1" d="M81.18,32.19c1.63,0,2.47,1,2.47,2.68v.34H82.07v-.44c0-.76-.3-1.05-.84-1.05s-.84.29-.84,1.05c0,2.19,3.28,2.61,3.28,5.65,0,1.71-.85,2.68-2.5,2.68s-2.5-1-2.5-2.68v-.66h1.59v.76c0,.76.34,1,.87,1s.87-.27.87-1c0-2.19-3.28-2.61-3.28-5.65C78.71,33.17,79.55,32.19,81.18,32.19Z"/><path class="cls-1" d="M9.27,30.26H7.09l-.37-2.49H4.08L3.7,30.26h-2L3.92,16.55H7.07ZM4.35,25.91H6.43L5.39,19Z"/><path class="cls-1" d="M12.33,16.55V27.13c0,1,.43,1.33,1.12,1.33s1.12-.35,1.12-1.33V16.55h2V27c0,2.19-1.1,3.45-3.21,3.45S10.17,29.19,10.17,27V16.55Z"/><path class="cls-1" d="M17.44,16.55H24.1v2H21.85V30.26H19.69V18.51H17.44Z"/><path class="cls-1" d="M24.87,19.84c0-2.19,1.16-3.45,3.27-3.45s3.27,1.25,3.27,3.45V27c0,2.19-1.16,3.45-3.27,3.45S24.87,29.17,24.87,27ZM27,27.11c0,1,.43,1.35,1.12,1.35s1.12-.37,1.12-1.35V19.7c0-1-.43-1.35-1.12-1.35S27,18.72,27,19.7Z"/><path class="cls-1" d="M37.37,26.29l1.47-9.74h3V30.26h-2V20.43l-1.49,9.84h-2l-1.61-9.7v9.7H32.78V16.55h3Z"/><path class="cls-1" d="M50.38,30.26H48.2l-.37-2.49H45.19l-.37,2.49h-2L45,16.55h3.15Zm-4.92-4.35h2.08L46.5,19Z"/><path class="cls-1" d="M50.75,16.55h6.66v2H55.16V30.26H53V18.51H50.75Z"/><path class="cls-1" d="M60.51,22.33h3v2h-3v4h3.72v2H58.35V16.55h5.88v2H60.51Z"/><path class="cls-1" d="M65.56,16.55H69c2.16,0,3.21,1.2,3.21,3.39v6.94c0,2.19-1.06,3.39-3.21,3.39H65.56Zm2.16,2v9.8h1.21C69.62,28.3,70,28,70,27V19.84c0-1-.41-1.33-1.1-1.33Z"/><path class="cls-1" d="M76.6,16.55h2.16V30.26H76.6Z"/><path class="cls-1" d="M80.32,16.55h3.41c2.16,0,3.21,1.2,3.21,3.39v6.94c0,2.19-1.06,3.39-3.21,3.39H80.32Zm2.16,2v9.8h1.21c.69,0,1.1-.35,1.1-1.33V19.84c0-1-.41-1.33-1.1-1.33Z"/><ellipse class="cls-1" cx="83.6" cy="15.52" rx="4.93" ry="0.88"/></g></g></svg>